<?xml version="1.0" encoding="UTF-8" standalone="no"?><!DOCTYPE svg PUBLIC "-//W3C//DTD SVG 1.1//EN" "http://www.w3.org/Graphics/SVG/1.1/DTD/svg11.dtd"><!-- Generated by graphviz version 2.40.1 (20161225.0304)
 --><!-- Title: fsm Pages: 1 --><svg xmlns="http://www.w3.org/2000/svg" xmlns:xlink="http://www.w3.org/1999/xlink" width="401pt" height="310pt" viewBox="0.00 0.00 401.48 310.40">
<g id="graph0" class="graph" transform="scale(1 1) rotate(0) translate(4 306.4)">
<title>fsm</title>
<polygon fill="#ffffff" stroke="transparent" points="-4,4 -4,-306.4 397.483,-306.4 397.483,4 -4,4"/>
<!-- candidate -->
<g id="node1" class="node">
<title>candidate</title>
<ellipse fill="none" stroke="#000000" cx="154.4058" cy="-284.4" rx="48.0723" ry="18"/>
<text text-anchor="middle" x="154.4058" y="-280.2" font-family="Times,serif" font-size="14.00" fill="#000000">candidate</text>
</g>
<!-- down -->
<g id="node2" class="node">
<title>down</title>
<ellipse fill="none" stroke="#000000" cx="35.4058" cy="-18" rx="32.4865" ry="18"/>
<text text-anchor="middle" x="35.4058" y="-13.8" font-family="Times,serif" font-size="14.00" fill="#000000">down</text>
</g>
<!-- candidate&#45;&gt;down -->
<g id="edge1" class="edge">
<title>candidate-&gt;down</title>
<path fill="none" stroke="#000000" d="M109.504,-277.7127C73.9387,-269.5869 27.6325,-251.8547 11.4058,-213.6 -12.5094,-157.2198 8.7543,-84.0512 23.7085,-45.138"/>
<polygon fill="#000000" stroke="#000000" points="27.0738,-46.1481 27.5296,-35.5631 20.5723,-43.5535 27.0738,-46.1481"/>
<text text-anchor="middle" x="16.9591" y="-147" font-family="Times,serif" font-size="14.00" fill="#000000">down</text>
</g>
<!-- leader -->
<g id="node3" class="node">
<title>leader</title>
<ellipse fill="none" stroke="#000000" cx="55.4058" cy="-195.6" rx="34.7476" ry="18"/>
<text text-anchor="middle" x="55.4058" y="-191.4" font-family="Times,serif" font-size="14.00" fill="#000000">leader</text>
</g>
<!-- candidate&#45;&gt;leader -->
<g id="edge2" class="edge">
<title>candidate-&gt;leader</title>
<path fill="none" stroke="#000000" d="M114.1839,-274.5531C90.3772,-267.8304 63.5158,-258.364 56.4184,-248.4 51.4266,-241.3922 49.9585,-232.427 50.1014,-223.8811"/>
<polygon fill="#000000" stroke="#000000" points="53.5967,-224.0828 50.9463,-213.8249 46.6213,-223.4967 53.5967,-224.0828"/>
<text text-anchor="middle" x="99.3995" y="-235.8" font-family="Times,serif" font-size="14.00" fill="#000000">majority_votes</text>
</g>
<!-- follower -->
<g id="node4" class="node">
<title>follower</title>
<ellipse fill="none" stroke="#ff0000" cx="154.4058" cy="-106.8" rx="43.9983" ry="18"/>
<text text-anchor="middle" x="154.4058" y="-102.6" font-family="Times,serif" font-size="14.00" fill="#000000">follower</text>
</g>
<!-- candidate&#45;&gt;follower -->
<g id="edge3" class="edge">
<title>candidate-&gt;follower</title>
<path fill="none" stroke="#000000" d="M154.4058,-266.3934C154.4058,-235.412 154.4058,-171.806 154.4058,-134.9346"/>
<polygon fill="#000000" stroke="#000000" points="157.9059,-134.8542 154.4058,-124.8543 150.9059,-134.8543 157.9059,-134.8542"/>
<text text-anchor="middle" x="186.6639" y="-191.4" font-family="Times,serif" font-size="14.00" fill="#000000">new_leader</text>
</g>
<!-- candidate&#45;&gt;follower -->
<g id="edge4" class="edge">
<title>candidate-&gt;follower</title>
<path fill="none" stroke="#000000" d="M177.4644,-268.4835C193.7131,-255.7627 214.1594,-236.3355 223.4058,-213.6 229.4334,-198.7788 229.4334,-192.4212 223.4058,-177.6 215.5496,-158.2828 199.6081,-141.3538 185.0257,-128.8975"/>
<polygon fill="#000000" stroke="#000000" points="187.0851,-126.0605 177.1242,-122.4506 182.6598,-131.4843 187.0851,-126.0605"/>
<text text-anchor="middle" x="255.3946" y="-191.4" font-family="Times,serif" font-size="14.00" fill="#000000">new_term</text>
</g>
<!-- leader&#45;&gt;down -->
<g id="edge7" class="edge">
<title>leader-&gt;down</title>
<path fill="none" stroke="#000000" d="M53.378,-177.5934C49.8891,-146.612 42.7263,-83.006 38.5741,-46.1346"/>
<polygon fill="#000000" stroke="#000000" points="42.0361,-45.5997 37.4389,-36.0543 35.08,-46.3831 42.0361,-45.5997"/>
<text text-anchor="middle" x="62.9591" y="-102.6" font-family="Times,serif" font-size="14.00" fill="#000000">down</text>
</g>
<!-- leader&#45;&gt;follower -->
<g id="edge8" class="edge">
<title>leader-&gt;follower</title>
<path fill="none" stroke="#000000" d="M56.3461,-177.5925C57.8016,-166.4121 61.3199,-152.3954 69.6764,-142.8 79.1364,-131.9375 92.437,-124.2615 105.7014,-118.8746"/>
<polygon fill="#000000" stroke="#000000" points="107.1217,-122.0815 115.2982,-115.3439 104.7047,-115.512 107.1217,-122.0815"/>
<text text-anchor="middle" x="105.7705" y="-147" font-family="Times,serif" font-size="14.00" fill="#000000">leave_leader</text>
</g>
<!-- follower&#45;&gt;candidate -->
<g id="edge6" class="edge">
<title>follower-&gt;candidate</title>
<path fill="none" stroke="#000000" d="M189.8676,-117.367C237.9466,-133.667 314.8484,-167.9028 287.4058,-213.6 269.6199,-243.2169 234.7872,-261.1187 205.2303,-271.5104"/>
<polygon fill="#000000" stroke="#000000" points="203.8336,-268.286 195.4412,-274.7527 206.0345,-274.931 203.8336,-268.286"/>
<text text-anchor="middle" x="342.9444" y="-191.4" font-family="Times,serif" font-size="14.00" fill="#000000">heartbeat_timeout</text>
</g>
<!-- follower&#45;&gt;down -->
<g id="edge5" class="edge">
<title>follower-&gt;down</title>
<path fill="none" stroke="#000000" d="M133.1309,-90.9243C113.5368,-76.3028 84.3517,-54.5243 62.9772,-38.5743"/>
<polygon fill="#000000" stroke="#000000" points="65.0265,-35.7365 54.9188,-32.561 60.8401,-41.3467 65.0265,-35.7365"/>
<text text-anchor="middle" x="121.9591" y="-58.2" font-family="Times,serif" font-size="14.00" fill="#000000">down</text>
</g>
</g>
</svg>